<?xml version="1.0" encoding="UTF-8" standalone="no"?>
<!DOCTYPE svg PUBLIC "-//W3C//DTD SVG 1.1//EN" "http://www.w3.org/Graphics/SVG/1.1/DTD/svg11.dtd">
<svg width="100%" height="100%" viewBox="0 0 45 56" version="1.1" xmlns="http://www.w3.org/2000/svg" xmlns:xlink="http://www.w3.org/1999/xlink" xml:space="preserve" xmlns:serif="http://www.serif.com/" style="fill-rule:evenodd;clip-rule:evenodd;stroke-linejoin:round;stroke-miterlimit:2;">
    <g transform="matrix(0.312843,0,0,0.312843,31.9923,-109.916)">
        <g id="Capa-1" serif:id="Capa 1">
            <g id="g899">
                <g id="g876">
                    <path id="path890" d="M-83.999,351.347C-94.067,351.347 -102.263,359.549 -102.263,369.617L-102.263,509.926C-102.263,519.994 -94.067,528.196 -83.999,528.196L23.292,528.196C33.36,528.196 41.556,519.995 41.556,509.926L41.556,394.553C41.556,394.553 41.844,391.174 40.377,387.887C39.002,384.805 36.762,382.661 36.762,382.661C36.756,382.653 36.751,382.645 36.745,382.638L10.126,356.528C10.111,356.513 10.097,356.498 10.082,356.484C10.082,356.484 7.809,354.32 4.44,352.874C0.473,351.172 -3.615,351.352 -3.615,351.352L-3.554,351.346L-83.999,351.347Z" style="fill:rgb(255,33,22);fill-rule:nonzero;"/>
                    <path id="rect2684" d="M-83.999,357.348L-3.554,357.348C-3.534,357.348 -3.514,357.348 -3.493,357.348C-3.493,357.348 -0.277,357.379 2.076,358.389C4.341,359.361 5.946,360.832 5.957,360.842C5.957,360.842 5.968,360.853 5.968,360.853L32.521,386.902C32.521,386.902 34.121,388.591 34.896,390.329C35.522,391.732 35.56,394.298 35.56,394.298C35.558,394.341 35.556,394.383 35.555,394.426L35.555,509.926C35.555,516.775 30.14,522.195 23.292,522.195L-83.999,522.195C-90.847,522.195 -96.262,516.775 -96.262,509.926L-96.262,369.617C-96.262,362.768 -90.847,357.348 -83.999,357.348L-83.999,357.348Z" style="fill:rgb(245,245,245);fill-rule:nonzero;"/>
                    <path id="path2697" d="M-66.352,456.642C-70.482,452.512 -66.014,446.838 -53.89,440.813L-46.261,437.022L-43.289,430.519C-41.655,426.943 -39.215,421.107 -37.868,417.551L-35.418,411.086L-37.106,406.301C-39.182,400.418 -39.922,391.577 -38.605,388.398C-36.821,384.092 -30.979,384.534 -28.666,389.15C-26.86,392.755 -27.044,399.283 -29.186,407.517L-30.941,414.267L-29.395,416.892C-28.544,418.335 -26.06,421.763 -23.874,424.509L-19.766,429.62L-14.654,428.952C1.585,426.833 7.148,430.435 7.148,435.599C7.148,442.116 -5.604,442.654 -16.312,435.133C-18.722,433.441 -20.376,431.76 -20.376,431.76C-20.376,431.76 -27.084,433.126 -30.387,434.016C-33.797,434.935 -35.497,435.511 -40.491,437.196C-40.491,437.196 -42.244,439.741 -43.385,441.591C-47.633,448.473 -52.593,454.176 -56.135,456.252C-60.101,458.576 -64.259,458.735 -66.352,456.642ZM-59.872,454.327C-57.551,452.892 -52.853,447.336 -49.601,442.179L-48.285,440.091L-54.28,443.105C-63.539,447.761 -67.775,452.148 -65.573,454.803C-64.335,456.294 -62.855,456.17 -59.872,454.327ZM0.273,437.444C2.544,435.854 2.214,432.649 -0.352,431.357C-2.35,430.352 -3.96,430.145 -9.149,430.222C-12.338,430.439 -17.465,431.082 -18.334,431.278C-18.334,431.278 -15.517,433.224 -14.267,433.94C-12.602,434.891 -8.556,436.656 -5.602,437.56C-2.689,438.452 -1.004,438.358 0.273,437.444L0.273,437.444ZM-23.91,427.393C-25.284,425.948 -27.621,422.934 -29.102,420.694C-31.04,418.153 -32.011,416.36 -32.011,416.36C-32.011,416.36 -33.427,420.915 -34.589,423.656L-38.214,432.616L-39.265,434.648C-39.265,434.648 -33.678,432.816 -30.835,432.074C-27.824,431.287 -21.714,430.086 -21.714,430.086L-23.91,427.393ZM-31.704,396.139C-31.353,393.198 -31.205,390.261 -32.15,388.78C-34.771,385.915 -37.934,388.304 -37.398,395.116C-37.218,397.408 -36.648,401.325 -35.887,403.739L-34.504,408.129L-33.53,404.823C-32.994,403.004 -32.172,399.096 -31.704,396.139Z" style="fill:rgb(255,33,22);fill-rule:nonzero;"/>
                    <g id="g858">
                        <path id="path845" d="M-59.33,475.763L-52.626,475.763C-50.484,475.763 -48.746,475.968 -47.41,476.378C-46.075,476.775 -44.951,477.667 -44.038,479.055C-43.126,480.431 -42.67,482.09 -42.67,484.034C-42.67,485.819 -43.04,487.353 -43.78,488.635C-44.521,489.918 -45.519,490.843 -46.775,491.412C-48.018,491.981 -49.936,492.265 -52.527,492.265L-54.848,492.265L-54.848,502.836L-59.33,502.836L-59.33,475.763ZM-54.848,479.234L-54.848,488.675L-52.626,488.675C-50.643,488.675 -49.274,488.305 -48.521,487.564C-47.754,486.824 -47.37,485.621 -47.37,483.954C-47.37,482.712 -47.622,481.707 -48.124,480.94C-48.627,480.16 -49.182,479.684 -49.79,479.512C-50.385,479.326 -51.331,479.234 -52.626,479.234L-54.848,479.234Z" style="fill:rgb(44,44,44);fill-rule:nonzero;"/>
                        <path id="path847" d="M-39.238,475.763L-33.149,475.763C-30.201,475.763 -27.847,476.285 -26.089,477.33C-24.317,478.374 -22.981,479.928 -22.082,481.991C-21.17,484.054 -20.713,486.341 -20.713,488.853C-20.713,491.498 -21.123,493.858 -21.943,495.934C-22.75,497.997 -23.993,499.663 -25.672,500.932C-27.338,502.202 -29.718,502.836 -32.812,502.836L-39.238,502.836L-39.238,475.763ZM-34.756,479.353L-34.756,499.246L-32.892,499.246C-30.287,499.246 -28.396,498.347 -27.219,496.549C-26.042,494.738 -25.454,492.324 -25.454,489.31C-25.454,482.672 -27.933,479.353 -32.892,479.353L-34.756,479.353Z" style="fill:rgb(44,44,44);fill-rule:nonzero;"/>
                        <path id="path849" d="M-16.41,475.763L-1.375,475.763L-1.375,479.353L-11.927,479.353L-11.927,487.445L-3.478,487.445L-3.478,491.035L-11.927,491.035L-11.927,502.836L-16.41,502.836L-16.41,475.763Z" style="fill:rgb(44,44,44);fill-rule:nonzero;"/>
                    </g>
                </g>
            </g>
        </g>
    </g>
</svg>
